{"title":"Cinderella(2015)MPEG-4[DaScubaDude]","uid":13685912,"size":1050949099,"categoryP":"video","categoryS":"movies","magnet":"?xt=urn:btih:3f3db32d85c196b4e28c49bf2d0c52d9fbc056d2&amp;dn=Cinderella%282015%29MPEG-4%5BDaScubaDude%5D&amp;tr=udp%3A%2F%2Ftracker.leechers-paradise.org%3A6969&amp;tr=udp%3A%2F%2Fzer0day.ch%3A1337&amp;tr=udp%3A%2F%2Fopen.demonii.com%3A1337&amp;tr=udp%3A%2F%2Ftracker.coppersurfer.tk%3A6969&amp;tr=udp%3A%2F%2Fexodus.desync.com%3A6969","seeders":1,"leechers":0,"uploader":"dascuba","files":1,"time":1456550316,"description":"Cinderella (2015)\r\nPG | 1h 45min | Drama, Family, Fantasy | 13 March 2015 (USA)\r\nWhen her father unexpectedly passes away, young Ella finds herself at the mercy of her cruel stepmother and her scheming step-sisters. Never one to give up hope, Ella's fortunes begin to change after meeting a dashing stranger.\r\nDirector: Kenneth Branagh\r\nWriter: Chris Weitz (screenplay)\r\nStars: Lily James, Cate Blanchett, Richard Madden \r\n\r\nGeneral\r\nComplete name                            : CinderellaCINDERELLA_Title21.mp4\r\nFormat                                   : MPEG-4\r\nFormat profile                           : Base Media\r\nCodec ID                                 : isom\r\nFile size                                : 1 002 MiB\r\nDuration                                 : 1h 45mn\r\nOverall bit rate                         : 1 331 Kbps\r\nMovie name                               : CINDERELLA\r\nGenre                                    : Fantasy\r\nWriting application                      : Lavf54.6.100\r\n\r\nVideo\r\nID                                       : 1\r\nFormat                                   : AVC\r\nFormat/Info                              : Advanced Video Codec\r\nFormat profile                           :   \r\nFormat settings, CABAC                   : No\r\nFormat settings, ReFrames                : 6 frames\r\nCodec ID                                 : avc1\r\nCodec ID/Info                            : Advanced Video Coding\r\nDuration                                 : 1h 45mn\r\nBit rate                                 : 1 196 Kbps\r\nWidth                                    : 720 pixels\r\nHeight                                   : 404 pixels\r\nDisplay aspect ratio                     : 16:9\r\nFrame rate mode                          : Constant\r\nFrame rate                               : 29.970 fps\r\nColor space                              : YUV\r\nChroma subsampling                       : 4:2:0\r\nBit depth                                : 8 bits\r\nScan type                                : Progressive\r\nBits/(Pixel*Frame)                       : 0.137\r\nStream size                              : 901 MiB (90%)\r\n\r\nAudio\r\nID                                       : 2\r\nFormat                                   : AAC\r\nFormat/Info                              : Advanced Audio Codec\r\nFormat profile                           : LC\r\nCodec ID                                 : 40\r\nDuration                                 : 1h 45mn\r\nBit rate mode                            : Constant\r\nBit rate                                 : 128 Kbps\r\nChannel(s)                               : 2 channels\r\nChannel positions                        : Front: L R\r\nSampling rate                            : 44.1 KHz\r\nCompression mode                         : Lossy\r\nStream size                              : 96.4 MiB (10%)","torrent":{"xt":"urn:btih:3f3db32d85c196b4e28c49bf2d0c52d9fbc056d2","amp;dn":"Cinderella%282015%29MPEG-4%5BDaScubaDude%5D","amp;tr":["udp%3A%2F%2Ftracker.leechers-paradise.org%3A6969","udp%3A%2F%2Fzer0day.ch%3A1337","udp%3A%2F%2Fopen.demonii.com%3A1337","udp%3A%2F%2Ftracker.coppersurfer.tk%3A6969","udp%3A%2F%2Fexodus.desync.com%3A6969"],"infoHash":"3f3db32d85c196b4e28c49bf2d0c52d9fbc056d2","infoHashBuffer":{"type":"Buffer","data":[63,61,179,45,133,193,150,180,226,140,73,191,45,12,82,217,251,192,86,210]},"announce":[],"urlList":[]}}